/* XPM */
static char *_151f30ed1b94256a17100dec699dee5i9C8fBuvU4bqs76r[] = {
/* columns rows colors chars-per-pixel */
"50 50 52 1 ",
"  c black",
". c #040404",
"X c #0B0B0B",
"o c gray5",
"O c gray7",
"+ c #151515",
"@ c #1D1D1D",
"# c #202020",
"$ c #252525",
"% c gray16",
"& c #2C2C2C",
"* c #323232",
"= c #373737",
"- c gray23",
"; c #3E3E3E",
": c #434343",
"> c #505050",
", c #535353",
"< c #5A5A5A",
"1 c #5D5D5D",
"2 c gray40",
"3 c #6A6A6A",
"4 c gray42",
"5 c #717171",
"6 c gray49",
"7 c #838383",
"8 c #848484",
"9 c #8B8B8B",
"0 c #939393",
"q c gray58",
"w c gray60",
"e c #9F9F9F",
"r c #A0A0A0",
"t c #A4A4A4",
"y c #AAAAAA",
"u c gray69",
"i c #B4B4B4",
"p c gray73",
"a c gray75",
"s c #C0C0C0",
"d c #CBCBCB",
"f c #CECECE",
"g c gray82",
"h c #D7D7D7",
"j c #DADADA",
"k c #DFDFDF",
"l c gray89",
"z c #E6E6E6",
"x c gray91",
"c c gray96",
"v c gray98",
"b c white",
/* pixels */
"                                                  ",
"                                                  ",
"                     %X                           ",
"                     ig0,@                        ",
"                     sbbblt1#                     ",
"           :rrrrrrr: sbbbbbbbf5*o   %w:           ",
"           3bbbbbbb3 sbbbbbbbbbblw;.;c3           ",
"           3b6#####o sbbbbbbbbbbbbc@:c3           ",
"           3b3       sbbbbbbbbbbbbc##8-          .",
"           3b3       sbbbbbbbbbbbbc#              ",
"           3b3       sbbbbbbbbbbbbc#*p,           ",
"           3b3       sbbbbbbbbbbbbc#*i,           ",
"           3b3       sbbbbbbbbbbbbc# X.           ",
"           3b3       sbbbbbbbbbbbbc#@2&           ",
"           3b3       sbbbbbbbbbbbbc#:c3           ",
"           3b3       sbbbbbbbbbbbbc@;c3           ",
"           <h1       sbbbbbbbbbbbbc#:c3           ",
"                     sbbbbbbbbbbbbc#;c3           ",
"                     sbbbbbbbbbbbbc#;c3           ",
"             *       sbbbbbbbbbbbbc#:c3           ",
"             q9      sbbbbbbbbbbbbc#:c3           ",
"             qv9.    sbbbbbbbbbbbbc#;c3           ",
"   X-:;:;::;;ubb6.   sbgxbbbbbbbbbc#;c3           ",
"   @xbbbbbbbbbbbb7.  sz.:bbbbbbbbbc@:c3           ",
"   #xbbbbbbbbbbbbb6. si Xbbbbbbbbbc#:c3           ",
"   #xbbbbbbbbbbbbb6. si Xbbbbbbbbbc#;c3           ",
"   @xbbbbbbbbbbbb7.  sz.:bbbbbbbbbc#;c3           ",
"   X;;;::;;:;ubb6.   sbgzbbbbbbbbbc#:c3           ",
"             qv9     sbbbbbbbbbbbbc#:c3           ",
"             q9.     sbbbbbbbbbbbbc#;c3           ",
"             *       sbbbbbbbbbbbbc#:c3           ",
"                     abbbbbbbbbbbbc#;c3           ",
"            .        sbbbbbbbbbbbbc#:c3           ",
"           <h<       sbbbbbbbbbbbbc#;c3           ",
"           3b3       sbbbbbbbbbbbbc#;c3           ",
"           3b3       sbbbbbbbbbbbbc#:c3           ",
"           3b3       sbbbbbbbbbbbbc#$9;           ",
"           3b3       sbbbbbbbbbbbbc#              ",
"           3b3       sbbbbbbbbbbbbc#$9:           ",
"           3b3       sbbbbbbbbbbbbc#*p,           ",
"           3b3       sbbbbbbbbbbbbc#              ",
"           4b3       sbbbbbbbbbbbbc##8;           ",
"           3b3       sbbbbbbbbbbbbc@:c3           ",
"           :y:       sbbbbbbbbbcs7:.&r:           ",
"                     abbbbbbbd3*o                 ",
"   O+++++++++++++++X abbblr1#  O++++++++++++++O   ",
"   pkkkkkkkkkklkkkk< ig0,@ X&2yjkklkkkkkkkkkkkp   ",
"   eaaaaaaaaaaaaaaa, %X   =6uassaaaaaaaaaaaaaae   ",
"                                                  ",
"                    .      ..                     "
};
