/* XPM */
static char *graphic[] = {
"50 50 44 1",
". c #000000",
", c #525252",
"- c #DEDEDE",
"* c #7C7C7C",
"a c #5F5F5F",
"b c #FFFFFF",
"c c #8E8E8E",
"d c #BEBEBE",
"e c #A6A6A6",
"f c #FEFEFE",
"g c #E4E4E4",
"h c #838383",
"i c #727272",
"j c #B4B4B4",
"k c #CBCBCB",
"l c #0E0E0E",
"m c #696969",
"n c #363636",
"o c #020202",
"p c #9B9B9B",
"q c #C7C7C7",
"r c #2F2F2F",
"s c #010101",
"t c #CDCDCD",
"u c #050505",
"v c #333333",
"w c #A5A5A5",
"x c #9A9A9A",
"y c #1F1F1F",
"z c #0C0C0C",
"A c #D9D9D9",
"B c #FAFAFA",
"C c #575757",
"D c #B7B7B7",
"E c #A4A4A4",
"F c #010101",
"G c #0B0B0B",
"H c #383838",
"I c #FCFCFC",
"J c #B0B0B0",
"K c #414141",
"L c #303030",
"M c #717171",
"N c #F1F1F1",
"..................................................",
"..................................................",
"..................................................",
"..................................................",
"..........dffffffffffffffffffffffffffffd..........",
"..........dbbbbbbbbbbbbbbbbbbbbbbbbbbbbd..........",
"..........dbbbbbbbbbbbbbbbbbbbbbbbbbbbbd..........",
"..........dbbbbbbbbbbbbbbbbbbbbbbbbbbbbd..........",
"..........dbbbbbbbbbbbbbbbbbbbbbbbbbbbbd..........",
"..........dbbbbbbbbbbbbbbbbbbbbbbbbbbbbd..........",
"..........dbbbbbbbbbbbbbbbbbbbbbbbbbbbbd..........",
"..........dbbbbbbbbbbbbbbbbbbbbbbbbbbbbd..........",
"..........dbbbbbbbbbbbbbbbbbbbbbbbbbbbbd..........",
"..........dbbbbbbbbbbbbbbbbbbbbbbbbbbbbd..........",
"..........dbbbbbbbbbbbbbbbbbbbbbbbbbbbbd..........",
"..........dbbbbbbbbbbbbbbbbbbbbbbbbbbbbd..........",
"..........dbbbbbbbbbbbbbbbbbbbbbbbbbbbbd..........",
"..........dbbbbbbbbbbbbbbbbbbbbbbbbbbbbd..........",
"..........dbbbbbbbbbbbbbbbbbbbbbbbbbbbbd..........",
"..........dbbbbbbbbbbbbbbbbbbbbbbbbbbbbd..........",
"..........dbbbbbbbbbbbbbbbbbbbbbbbbbbbbd..........",
"..........dbbknuyEbbbbbbbbbbbbbbbbbbbbbd..........",
"..........dbglovzsJbbbbbbbbbbbbbbbbbbbbd..........",
"..........dbh.pbAFKbbbbbbbbbbbbbbbbbbbbd..........",
"..........dbi.qbBGLbbbbbbbbbbbbbbbbbbbbd..........",
"..........dbj.rwC.Mbbbbbbbbbbbbbbbbbbbbd..........",
"..........dbfms..HNbbbbbbbbbbbbbbbbbbbbd..........",
"..........dbbbtxDIbbbbbbbbbbbbbbbbbbbbbd..........",
"..........dbbbbbbbbbbbbbbbbbbbbbbbbbbbbd..........",
"..........dbbbbbbbbbbbbbbbbbbbbbbbbbbbbd..........",
"..........dbbbbbbbbbbbbbbbbbbbbbbbbbbbbd..........",
"..........dbbbbbbbbbbbbbbbbbbbbbbbbbbbbd..........",
"..........dbbbbbbbbbbbbbbbbbbbbbbbbbbbbd..........",
"..........dbbbbbbbbbbbbbbbbbbbbbbbbbbbbd..........",
"..........dbbbbbbbbbbbbbbbbbbbbbbbbbbbbd..........",
"..........dbbbbbbbbbbbbbbbbbbbbbbbbbbbbd..........",
"..........dbbbbbbbbbbbbbbbbbbbbbbbbbbbbd..........",
"..........dbbbbbbbbbbbbbbbbbbbbbbbbbbbbd..........",
"..........dbbbbbbbbbbbbbbbbbbbbbbbbbbbbd..........",
"..........dbbbbbbbbbbbbbbbbbbbbbbbbbbbbd..........",
"..........dbbbbbbbbbbbbbbbbbbbbbbbbbbbbd..........",
"..........dbbbbbbbbbbbbbbbbbbbbbbbbbbbbd..........",
"..........e----------------------------e..........",
"..................................................",
".......,aaaaaaaaaaaaaaaaaaaaaaaaaaaaaaaaaa,.......",
".......-bbbbbbbbbbbbbbbbbbbbbbbbbbbbbbbbbb-.......",
".......-bbbbbbbbbbbbbbbbbbbbbbbbbbbbbbbbbb-.......",
".......*cccccccccccccccccccccccccccccccccc*.......",
"..................................................",
".................................................."
};
