/* XPM */
static char *result[] = {
/* columns rows colors chars-per-pixel */
"50 50 163 2 ",
"   c black",
".  c #010000",
"X  c #010101",
"o  c #020000",
"O  c #020202",
"+  c gray1",
"@  c #040404",
"#  c gray2",
"$  c #060606",
"%  c #070707",
"&  c gray3",
"*  c gray4",
"=  c #0B0B0B",
"-  c #0C0C0C",
";  c gray5",
":  c #0E0E0E",
">  c gray6",
",  c gray7",
"<  c gray8",
"1  c #151515",
"2  c #161616",
"3  c #181818",
"4  c #191919",
"5  c #1B1B1B",
"6  c #1D1D1D",
"7  c #222222",
"8  c #252525",
"9  c #272727",
"0  c gray16",
"q  c #2C2C2C",
"w  c gray20",
"e  c #343434",
"r  c #353535",
"t  c gray21",
"y  c gray22",
"u  c #3A3A3A",
"i  c gray23",
"p  c #3C3C3C",
"a  c #3E3E3E",
"s  c #3F3F3F",
"d  c #414141",
"f  c gray26",
"g  c #434343",
"h  c #444444",
"j  c gray28",
"k  c #484848",
"l  c gray30",
"z  c #4E4E4E",
"x  c #515151",
"c  c gray32",
"v  c #535353",
"b  c gray33",
"n  c #565656",
"m  c gray34",
"M  c gray36",
"N  c #5D5D5D",
"B  c #5F5F5F",
"V  c #606060",
"C  c gray38",
"Z  c #626262",
"A  c gray39",
"S  c #646464",
"D  c gray40",
"F  c #6A6A6A",
"G  c #6C6C6C",
"H  c gray43",
"J  c #6F6F6F",
"K  c #717171",
"L  c #727272",
"P  c gray45",
"I  c #747474",
"U  c gray46",
"Y  c #767676",
"T  c gray47",
"R  c #797979",
"E  c #7C7C7C",
"W  c #7E7E7E",
"Q  c gray50",
"!  c #818181",
"~  c gray51",
"^  c #838383",
"/  c #848484",
"(  c #888888",
")  c gray54",
"_  c gray55",
"`  c gray56",
"'  c #909090",
"]  c #959595",
"[  c #979797",
"{  c #989898",
"}  c gray60",
"|  c #9B9B9B",
" . c gray62",
".. c #9F9F9F",
"X. c #A0A0A0",
"o. c gray63",
"O. c #A2A2A2",
"+. c gray64",
"@. c #A5A5A5",
"#. c gray65",
"$. c #A7A7A7",
"%. c #A9A9A9",
"&. c #AAAAAA",
"*. c #ACACAC",
"=. c gray69",
"-. c gray70",
";. c #B4B4B4",
":. c #B9B9B9",
">. c gray73",
",. c gray74",
"<. c gray",
"1. c #C0C0C0",
"2. c #C1C1C1",
"3. c #C3C3C3",
"4. c #C5C5C5",
"5. c #C6C6C6",
"6. c #C8C8C8",
"7. c gray79",
"8. c #CBCBCB",
"9. c #CECECE",
"0. c #D0D0D0",
"q. c gray82",
"w. c LightGray",
"e. c gray83",
"r. c #D5D5D5",
"t. c gray84",
"y. c #D7D7D7",
"u. c #D8D8D8",
"i. c gray85",
"p. c #DADADA",
"a. c gray86",
"s. c gainsboro",
"d. c gray87",
"f. c #DFDFDF",
"g. c gray88",
"h. c #E1E1E1",
"j. c #E2E2E2",
"k. c gray89",
"l. c #E4E4E4",
"z. c #E6E6E6",
"x. c #E7E7E7",
"c. c gray91",
"v. c #E9E9E9",
"b. c #EAEAEA",
"n. c gray92",
"m. c #ECECEC",
"M. c #EEEEEE",
"N. c #EFEFEF",
"B. c gray94",
"V. c #F1F1F1",
"C. c gray95",
"Z. c #F3F3F3",
"A. c #F4F4F4",
"S. c gray96",
"D. c gray97",
"F. c #F8F8F8",
"G. c #F9F9F9",
"H. c gray98",
"J. c #FBFBFB",
"K. c gray99",
"L. c #FDFDFD",
"P. c #FEFEFE",
"I. c white",
/* pixels */
"                                                      X                                             ",
"                                              O @ @ X                                               ",
"                      o       X % 6 d N _ -.r.j.x.z.f.w.2.} D 9 #                                   ",
"                . o     , B ] t.j.n.Z.I.I.I.I.I.I.I.I.I.I.I.I.D.v.;.V :                             ",
"                  # A 6.J.I.I.I.I.I.I.I.I.I.I.I.I.I.I.I.I.I.I.I.I.I.I.V.+.9                         ",
"              - W x.I.I.I.I.I.I.I.I.I.I.I.I.I.I.I.I.I.C.j.u.e.r.s.v.K.I.I.G. .<                     ",
"              ( I.I.I.I.I.I.I.I.I.I.I.I.I.s.#.F h q 3 ; % @ + + # * , 7 r z ^ ..p                   ",
"              7 I.I.I.I.I.I.I.I.I.I.,.N 7               > =                     O                   ",
"                4.I.I.I.I.I.I.b.T 5                   k v.g.r                                       ",
"                m I.I.I.I.V.Y =                     l S.I.I.C.a                                     ",
"                X t.I.P.O.2                       e C.I.I.I.I.N.0                                   ",
"                  n I.y.@                       * d.I.I.I.I.I.I.i.-                                 ",
"                    1.I.b                       o.I.I.I.I.I.I.I.I._                                 ",
"                    q Z.m.4                   g L.I.I.I.I.I.I.I.I.L.w                               ",
"                      ` I.X.#               + 6.I.I.I.I.I.I.I.I.I.I.:.O                             ",
"                      @ 1.I.X.              K I.I.I.I.I.I.I.I.I.I.I.I.x                             ",
"                        5 x.P.M           2 c.I.I.I.I.I.I.I.I.I.I.I.I.9.+                           ",
"                          t b.K.c       @ 3.I.I.I.I.I.I.I.I.I.I.I.I.4.8                             ",
"                            w F.H.b   X X.I.I.I.I.I.I.I.I.I.I.I.H.R $                               ",
"                              8.I.G.Z T P.I.I.I.I.I.I.I.I.I.I.a.t                                   ",
"                              0.I.I.K.J.I.I.I.I.I.I.I.I.I.I.I.!                                     ",
"                              y.I.I.I.I.I.I.I.I.I.I.I.I.I.I.I.M.:                                   ",
"                              d.I.I.I.I.I.I.I.I.I.I.I.I.I.I.I.I.C                                   ",
"                              l.I.I.I.I.I.I.I.I.I.I.I.I.I.I.I.I.f.+                                 ",
"                              n.I.I.I.I.I.I.I.I.I.I.I.I.I.I.I.I.I.l                                 ",
"                              7.I.I.I.I.I.I.I.I.I.I.I.I.I.I.I.I.I.5.                                ",
"                              O s >.L.I.I.I.I.I.I.I.I.I.I.I.I.I.I.I.y                               ",
"                                    t &.J.I.I.I.I.I.I.I.I.I.I.I.I.I.=.                              ",
"                                        0 i.I.I.I.I.I.I.I.I.I.I.I.I.I.9                             ",
"                                        # b.I.I.I.I.I.I.I.I.I.I.I.I.I.]                             ",
"                                        j I.I.I.I.I.I.I.I.I.I.I.I.I.I.~                             ",
"                                        { I.I.I.I.I.I.I.I.I.I.I.I.A.v X                             ",
"                                        w.I.I.I.I.I.I.I.I.I.I.I.L.q                                 ",
"                                      3 J.I.I.I.I.I.I.I.I.I.I.I.I.+.X                               ",
"                                      N I.I.I.I.I.I.I.I.I.I.I.P.h.I.G                               ",
"                                      %.I.I.I.I.I.I.I.I.I.I.I.I.S B.J.p                             ",
"                                    O u.I.I.I.I.I.I.I.I.I.I.I.I.I n L.f.<                           ",
"                                    8 K.I.I.I.I.I.I.I.I.I.I.I.I.6.  [ I.|                           ",
"                                    S I.I.I.I.I.I.I.I.I.I.I.I.I.J.* % t.L.f                         ",
"                                    $.I.I.I.I.I.I.I.I.I.I.I.I.I.I.t   f J.i.*                       ",
"                                    p.I.I.I.I.I.I.I.I.I.I.I.I.I.I.H     $.I.P                       ",
"                                  , K.I.I.I.I.I.I.I.I.I.I.I.I.I.I.@.    4 C.M.3                     ",
"                                  B I.I.I.I.I.I.I.I.I.I.I.I.I.I.I.M.O     ) I./                     ",
"                                  [ I.I.I.I.I.I.I.I.I.I.I.I.I.I.I.I.7     ; n.k.%                   ",
"                                  9.I.I.I.I.I.I.I.I.I.I.I.I.I.I.I.I.l       u 1                     ",
"                                # F.I.I.I.I.I.I.I.I.I.I.I.I.I.I.I.I._                               ",
"                                i I.I.I.I.I.I.I.I.I.I.I.I.I.I.I.I.I.q.                              ",
"                                J t.6.6.6.0.0.<.*.' Q U Q Y U T E L E &                             ",
"                                X O O X X X X X                                                     ",
"                    X O O # + X X                                                                   "
};
