/* XPM */
static char *graphic[] = {
"50 50 217 2",
".. c #000000",
"., c #010101",
".- c #232323",
".* c #4C4C4C",
".a c #6D6D6D",
".b c #797979",
".c c #030303",
".d c #000000",
".e c #383838",
".f c #979797",
".g c #E9E9E9",
".h c #FFFFFF",
".i c #FBFBFB",
".j c #050505",
".k c #3B3B3B",
".l c #CACACA",
".m c #0E0E0E",
".n c #A6A6A6",
".o c #FFFFFF",
".p c #FFFFFF",
".q c #E6E6E6",
".r c #C1C1C1",
".s c #ADADAD",
".t c #040404",
".u c #383838",
".v c #CDCDCD",
".w c #717171",
".x c #2E2E2E",
".y c #090909",
".z c #090909",
".A c #000000",
".B c #464646",
".C c #F8F8F8",
".D c #F8F8F8",
".E c #F3F3F3",
".F c #FEFEFE",
".G c #FFFFFF",
".H c #F8F8F8",
".I c #D6D6D6",
".J c #A9A9A9",
".K c #6F6F6F",
".L c #202020",
".M c #454545",
".N c #FBFBFB",
".O c #C9C9C9",
".P c #4D4D4D",
".Q c #2C2C2C",
".R c #F6F6F6",
".S c #B7B7B7",
".T c #151515",
".U c #090909",
".V c #DBDBDB",
".W c #E3E3E3",
".X c #232323",
".Y c #919191",
".Z c #DEDEDE",
".0 c #0F0F0F",
".1 c #303030",
".2 c #FCFCFC",
".3 c #A8A8A8",
".4 c #B8B8B8",
".5 c #353535",
".6 c #2F2F2F",
".7 c #B1B1B1",
".8 c #989898",
".9 c #FCFCFC",
".@ c #141414",
".# c #2E2E2E",
".; c #E8E8E8",
".: c #DDDDDD",
".= c #060606",
".+ c #F2F2F2",
".% c #5F5F5F",
".$ c #030303",
".( c #EDEDED",
".) c #F2F2F2",
".[ c #414141",
".] c #A3A3A3",
",. c #B4B4B4",
",, c #8B8B8B",
",- c #FAFAFA",
",* c #D5D5D5",
",a c #818181",
",b c #4A4A4A",
",c c #9E9E9E",
",d c #C9C9C9",
",e c #D6D6D6",
",f c #BABABA",
",g c #7F7F7F",
",h c #202020",
",i c #2F2F2F",
",j c #E4E4E4",
",k c #FBFBFB",
",l c #010101",
",m c #575757",
",n c #252525",
",o c #D5D5D5",
",p c #878787",
",q c #282828",
",r c #F4F4F4",
",s c #181818",
",t c #363636",
",u c #F5F5F5",
",v c #F6F6F6",
",w c #F5F5F5",
",x c #E8E8E8",
",y c #1A1A1A",
",z c #EDEDED",
",A c #989898",
",B c #767676",
",C c #2D2D2D",
",D c #A6A6A6",
",E c #2D2D2D",
",F c #FEFEFE",
",G c #393939",
",H c #E9E9E9",
",I c #777777",
",J c #E9E9E9",
",K c #3B3B3B",
",L c #727272",
",M c #E9E9E9",
",N c #3C3C3C",
",O c #9C9C9C",
",P c #FDFDFD",
",Q c #2C2C2C",
",R c #171717",
",S c #FEFEFE",
",T c #3B3B3B",
",U c #141414",
",V c #E4E4E4",
",W c #8C8C8C",
",X c #828282",
",Y c #2F2F2F",
",Z c #191919",
",0 c #C2C2C2",
",1 c #F6F6F6",
",2 c #747474",
",3 c #010101",
",4 c #323232",
",5 c #F8F8F8",
",6 c #1B1B1B",
",7 c #171717",
",8 c #696969",
",9 c #646464",
",@ c #3A3A3A",
",# c #8A8A8A",
",; c #AFAFAF",
",: c #BCBCBC",
",= c #A0A0A0",
",+ c #696969",
",% c #171717",
",$ c #3D3D3D",
",( c #ECECEC",
",) c #FDFDFD",
",[ c #040404",
",] c #555555",
"-. c #1F1F1F",
"-, c #A0A0A0",
"-- c #E1E1E1",
"-* c #767676",
"-a c #3E3E3E",
"-b c #B4B4B4",
"-c c #070707",
"-d c #DADADA",
"-e c #999999",
"-f c #2A2A2A",
"-g c #181818",
"-h c #2C2C2C",
"-i c #D8D8D8",
"-j c #1E1E1E",
"-k c #6E6E6E",
"-l c #6D6D6D",
"-m c #6D6D6D",
"-n c #686868",
"-o c #B9B9B9",
"-p c #676767",
"-q c #272727",
"-r c #DBDBDB",
"-s c #060606",
"-t c #939393",
"-u c #FAFAFA",
"-v c #363636",
"-w c #0A0A0A",
"-x c #DDDDDD",
"-y c #FDFDFD",
"-z c #5C5C5C",
"-A c #2B2B2B",
"-B c #F6F6F6",
"-C c #4B4B4B",
"-D c #474747",
"-E c #FAFAFA",
"-F c #F1F1F1",
"-G c #8B8B8B",
"-H c #494949",
"-I c #F9F9F9",
"-J c #FDFDFD",
"-K c #E1E1E1",
"-L c #C0C0C0",
"-M c #8D8D8D",
"-N c #464646",
"-O c #050505",
"-P c #343434",
"-Q c #E2E2E2",
"-R c #CDCDCD",
"-S c #727272",
"-T c #2C2C2C",
"-U c #0B0B0B",
"-V c #080808",
"-W c #010101",
"-X c #101010",
"-Y c #A1A1A1",
"-Z c #3D3D3D",
"-0 c #C9C9C9",
"-1 c #979797",
"-2 c #E8E8E8",
"-3 c #222222",
"-4 c #6C6C6C",
"....................................................................................................",
"....................................................................................................",
"............................................,y,D,H.q,O,U............................................",
"..........................................,n,z.h.h.h.h,V,Z..........................................",
".........................................c,o.h.h.h.h.h.h,0..........................................",
"........................................,b.h.h.h.h.h.h.h.h,@........................................",
"........................................,c.h.h.h.h.h.h.h.h,#........................................",
"........................................,d.h.h.h.h.h.h.h.h,;........................................",
"........................................,e.h.h.h.h.h.h.h.h,:........................................",
"........................................,f.h.h.h.h.h.h.h.h,=........................................",
"........................................,g.h.h.h.h.h.h.h.h,+........................................",
"...................................=.[.T,h.N.h.h.h.h.h.h,1,%-.-a-c..................................",
"...............................6.8.+.h,,..,p.h.h.h.h.h.h,2..-,.h.+-e-h..............................",
"...........................1.4.o.h.h.h,-,i.$,A.F.h.h,P,W,3,$,F.h.h.h.G-o-q..........................",
".......................U.Y.2.h.h.h.h.h.h,j,q..,E,I,L,Q..,4,(.h.h.h.h.h.h.i-t-w......................",
".....................Q.V.h.h.h.h.h.h.h.h.h,r,B.@....,R,X,5.h.h.h.h.h.h.h.h.h-x-A....................",
"...................M.R.h.h.h.h.h.h.h.h.h.h.h.h,F,J,M,S.h.h.h.h.h.h.h.h.h.h.h.h-B-D..................",
".................B.N.h.h.h.h.h.h.h.h.h.h.h.h.h.h.h.h.h.h.h.h.h.h.h.h.h.h.h.h.h.h-E-H................",
"...............u.C.h.h.h.h.h.h.h.h.h.h.h.h.h.h.h.h.h.h.h.h.h.h.h.h.h.h.h.h.h.h.h.h-I-P..............",
".............m.q.h.h.h.h.h.h.h.h.h.h.h.h.h.h.h.h.h.h.h.h.h.h.h.h.h.h.h.h.h.h.h.h.h.h-Q-X............",
"...........d.n.h.h.h.h.h.h.h.h.h.h.h.h.h.h.h.h.h.h.h.h.h.h.h.h.h.h.h.h.h.h.h.h.h.h.h.h-Y............",
"...........k.o.h.h.h.h.h.h.h.h.h.h.h.h.h.h.h.h.h.h.h.h.h.h.h.h.h.h.h.h.h.h.h.h.h.h.h.h,S-Z..........",
".........d.l.h.h.h.h.h.h.h.h.h.h.h.h.h.h.h.h.h.h.h.h.h.h.h.h.h.h.h.h.h.h.h.h.h.h.h.h.h.h-0.d........",
".........e.h.h.h.D.h.h.h.h.h.h.h.h.h.h.h.h.h.h.h.h.h.h.h.h.h.h.h.h.h.h.h.h.h.h.h.h.D.h.h.h.e........",
".........f.h.h.v.E.h.h.h.h.h.h.h.h.h.h.h.h.h.h.h.h.h.h.h.h.h.h.h.h.h.h.h.h.h.h.h.h.E-R.h.h-1........",
".......,.g.h.h.w.F.h.h.h.h.h.h.h.h.h.h.h.h.h.h.h.h.h.h.h.h.h.h.h.h.h.h.h.h.h.h.h.h.F-S.h.h-2.d......",
".......-.h.h.p.x.G.h.h.h.h.h.h.h.h.h.h.h.h.h.h.h.h.h.h.h.h.h.h.h.h.h.h.h.h.h.h.h.h.G-T.p.h.h-3......",
".......*.h.h.q.y.G.h.h.h.h.h.h.h.h.h.h.h.h.h.h.h.h.h.h.h.h.h.h.h.h.h.h.h.h.h.h.h.h.G-U.q.h.h.*......",
".......a.h.h.r.z.F.h.h.h.h.h.h.h.h.h.h.h.h.h.h.h.h.h.h.h.h.h.h.h.h.h.h.h.h.h.h.h.h.F-V.r.h.h-4......",
".......b.i.i.s.A.H.h.h.h.h.h.h.h.h.h.h.h.h.h.h.h.h.h.h.h.h.h.h.h.h.h.h.h.h.h.h.h.h-J-W.s.i.i.b......",
".......c.j.j.t...I.h.h.h.h.h.h.h.h.h.h.h.h.h.h.h.h.h.h.h.h.h.h.h.h.h.h.h.h.h.h.h.h-K...t.j.j.c......",
".................J.h.h.h.h.h.h.h.h.h.h.h.h.h.h.h.h.h.h.h.h.h.h.h.h.h.h.h.h.h.h.h.h-L................",
".................K.h.h.h.h.h.h.h.h.h.h.h.h.h.h.h.h.h.h.h.h.h.h.h.h.h.h.h.h.h.h.h.h-M................",
".................L.h.h.h.h.h.h.h.h.h.h.h.h.h.h.h.h.h.h.h.h.h.h.h.h.h.h.h.h.h.h.h.h-N................",
"...................O.h.h.h.h.h.h.h.h.h.h.h.h.h.h.h.h.h.h.h.h.h.h.h.h.h.h.h.h.h.h-F-O................",
"...................P.h.h.h.h.h.h.h.h.h.h.h.h.h.h.h.h.h.h.h.h.h.h.h.h.h.h.h.h.h.h-G..................",
"...................,.S.h.h.h.h.h.h.h.h.h.h.h.h.h.h.h.h.h.h.h.h.h.h.h.h.h.h.h.h,(.T..................",
".....................T.W.h.h.h.h.h.h.h.h.h.h.h.h.h.h.h.h.h.h.h.h.h.h.h.h.h.h-y-C....................",
".......................X.Z.h.h.h.h.h.h.h.h.h.h.h.h.h.h.h.h.h.h.h.h.h.h.h.h-u-z......................",
".........................0.3.F.h.h.h.h.h.h.h.h.h.h.h.h.h.h.h.h.h.h.h.h.h-r-v........................",
".............................5.7.9.h.h.h.h.h.h.h.h.h.h.h.h.h.h.h.h.h-i-p-s..........................",
".................................@.%.],*,k.h.h.h.h.h.h.h.h,)---b.b-f.,..............................",
".................................#.$....,l,s,C,G,K,N,T,Y,6,[......-g-j..............................",
".................................;.(,.,a,m,t............,7,]-*.n-d.p-k..............................",
".................................;.h.h.h.h,u............,8.h.h.h.h.h-l..............................",
".................................;.h.h.h.h,v............,8.h.h.h.h.h-m..............................",
".................................;.h.h.h.h,w............,8.h.h.h.h.h-m..............................",
".................................:.).).).),x............,9.).).).).)-n..............................",
"....................................................................................................",
"...................................................................................................."
};
