/* XPM */
static char *graphic[] = {
"50 50 620 2",
".. c #000000",
"., c #232323",
".- c #B5B5B5",
".* c #1C1C1C",
".a c #151515",
".b c #9B9B9B",
".c c #CFCFCF",
".d c #9A9A9A",
".e c #111111",
".f c #5B5B5B",
".g c #F5F5F5",
".h c #FFFFFF",
".i c #797979",
".j c #090909",
".k c #363636",
".l c #595959",
".m c #5F5F5F",
".n c #545454",
".o c #010101",
".p c #474747",
".q c #060606",
".r c #C2C2C2",
".s c #B5B5B5",
".t c #6C6C6C",
".u c #F5F5F5",
".v c #5C5C5C",
".w c #000000",
".x c #4B4B4B",
".y c #020202",
".z c #5B5B5B",
".A c #C2C2C2",
".B c #FCFCFC",
".C c #F6F6F6",
".D c #010101",
".E c #383838",
".F c #AFAFAF",
".G c #141414",
".H c #FFFFFF",
".I c #FDFDFD",
".J c #060606",
".K c #2B2B2B",
".L c #FCFCFC",
".M c #F8F8F8",
".N c #343434",
".O c #4D4D4D",
".P c #FFFFFF",
".Q c #333333",
".R c #787878",
".S c #7F7F7F",
".T c #7D7D7D",
".U c #666666",
".V c #494949",
".W c #E1E1E1",
".X c #FEFEFE",
".Y c #040404",
".Z c #333333",
".0 c #FEFEFE",
".1 c #0E0E0E",
".2 c #212121",
".3 c #1B1B1B",
".4 c #A8A8A8",
".5 c #A0A0A0",
".6 c #646464",
".7 c #E8E8E8",
".8 c #DBDBDB",
".9 c #030303",
".@ c #939393",
".# c #111111",
".; c #202020",
".: c #2A2A2A",
".= c #0F0F0F",
".+ c #353535",
".% c #494949",
".$ c #D0D0D0",
".( c #020202",
".) c #A1A1A1",
".[ c #737373",
".] c #D6D6D6",
",. c #E5E5E5",
",, c #010101",
",- c #A5A5A5",
",* c #F1F1F1",
",a c #383838",
",b c #E0E0E0",
",c c #242424",
",d c #121212",
",e c #3C3C3C",
",f c #020202",
",g c #FEFEFE",
",h c #4A4A4A",
",i c #FAFAFA",
",j c #C7C7C7",
",k c #292929",
",l c #9B9B9B",
",m c #808080",
",n c #CBCBCB",
",o c #EFEFEF",
",p c #898989",
",q c #A4A4A4",
",r c #888888",
",s c #373737",
",t c #FFFFFF",
",u c #4B4B4B",
",v c #F5F5F5",
",w c #5D5D5D",
",x c #2B2B2B",
",y c #D3D3D3",
",z c #848484",
",A c #939393",
",B c #929292",
",C c #BABABA",
",D c #F3F3F3",
",E c #464646",
",F c #9B9B9B",
",G c #818181",
",H c #464646",
",I c #FBFBFB",
",J c #626262",
",K c #E0E0E0",
",L c #6D6D6D",
",M c #0B0B0B",
",N c #DDDDDD",
",O c #4A4A4A",
",P c #878787",
",Q c #A4A4A4",
",R c #AFAFAF",
",S c #F8F8F8",
",T c #0A0A0A",
",U c #E3E3E3",
",V c #E4E4E4",
",W c #0B0B0B",
",X c #CCCCCC",
",Y c #4A4A4A",
",Z c #E8E8E8",
",0 c #727272",
",1 c #D0D0D0",
",2 c #818181",
",3 c #B7B7B7",
",4 c #474747",
",5 c #828282",
",6 c #ABABAB",
",7 c #A3A3A3",
",8 c #FCFCFC",
",9 c #020202",
",@ c #7B7B7B",
",# c #5F5F5F",
",; c #E0E0E0",
",: c #7E7E7E",
",= c #C5C5C5",
",+ c #8B8B8B",
",% c #4D4D4D",
",$ c #D6D6D6",
",( c #030303",
",) c #828282",
",[ c #BBBBBB",
",] c #9A9A9A",
"-. c #080808",
"-, c #EEEEEE",
"-- c #696969",
"-* c #D3D3D3",
"-a c #8C8C8C",
"-b c #B9B9B9",
"-c c #9E9E9E",
"-d c #393939",
"-e c #ECECEC",
"-f c #242424",
"-g c #808080",
"-h c #C4C4C4",
"-i c #969696",
"-j c #FDFDFD",
"-k c #060606",
"-l c #5F5F5F",
"-m c #979797",
"-n c #AAAAAA",
"-o c #AEAEAE",
"-p c #101010",
"-q c #E9E9E9",
"-r c #F9F9F9",
"-s c #363636",
"-t c #7F7F7F",
"-u c #C9C9C9",
"-v c #878787",
"-w c #FEFEFE",
"-x c #0B0B0B",
"-y c #BABABA",
"-z c #7E7E7E",
"-A c #C0C0C0",
"-B c #A9A9A9",
"-C c #9C9C9C",
"-D c #BBBBBB",
"-E c #727272",
"-F c #888888",
"-G c #7F7F7F",
"-H c #D9D9D9",
"-I c #818181",
"-J c #0E0E0E",
"-K c #0C0C0C",
"-L c #F9F9F9",
"-M c #818181",
"-N c #B2B2B2",
"-O c #B2B2B2",
"-P c #929292",
"-Q c #C5C5C5",
"-R c #747474",
"-S c #7F7F7F",
"-T c #7F7F7F",
"-U c #DDDDDD",
"-V c #7E7E7E",
"-W c #141414",
"-X c #4B4B4B",
"-Y c #D5D5D5",
"-Z c #AFAFAF",
"-0 c #8E8E8E",
"-1 c #AEAEAE",
"-2 c #B6B6B6",
"-3 c #8E8E8E",
"-4 c #D0D0D0",
"-5 c #0E0E0E",
"-6 c #D0D0D0",
"-7 c #F2F2F2",
"-8 c #363636",
"-9 c #E2E2E2",
"-@ c #161616",
"-# c #868686",
"-; c #454545",
"-: c #0D0D0D",
"-= c #FCFCFC",
"-+ c #939393",
"-% c #A8A8A8",
"-$ c #C4C4C4",
"-( c #7D7D7D",
"-) c #D6D6D6",
"-[ c #090909",
"-] c #888888",
"*. c #F6F6F6",
"*, c #717171",
"*- c #EDEDED",
"** c #737373",
"*a c #161616",
"*b c #B7B7B7",
"*c c #2B2B2B",
"*d c #EAEAEA",
"*e c #989898",
"*f c #A4A4A4",
"*g c #C7C7C7",
"*h c #777777",
"*i c #E2E2E2",
"*j c #4D4D4D",
"*k c #FEFEFE",
"*l c #929292",
"*m c #F1F1F1",
"*n c #666666",
"*o c #191919",
"*p c #E2E2E2",
"*q c #505050",
"*r c #FDFDFD",
"*s c #9A9A9A",
"*t c #9A9A9A",
"*u c #CDCDCD",
"*v c #727272",
"*w c #EAEAEA",
"*x c #000000",
"*y c #ECECEC",
"*z c #DEDEDE",
"*A c #F7F7F7",
"*B c #6B6B6B",
"*C c #181818",
"*D c #CCCCCC",
"*E c #979797",
"*F c #969696",
"*G c #CECECE",
"*H c #6E6E6E",
"*I c #F0F0F0",
"*J c #030303",
"*K c #949494",
"*L c #838383",
"*M c #FAFAFA",
"*N c #1E1E1E",
"*O c #0C0C0C",
"*P c #989898",
"*Q c #949494",
"*R c #CFCFCF",
"*S c #6A6A6A",
"*T c #F0F0F0",
"*U c #B3B3B3",
"*V c #969696",
"*W c #020202",
"*X c #FCFCFC",
"*Y c #181818",
"*Z c #181818",
"*0 c #9A9A9A",
"*1 c #949494",
"*2 c #D0D0D0",
"*3 c #5C5C5C",
"*4 c #EFEFEF",
"*5 c #040404",
"*6 c #C6C6C6",
"*7 c #FAFAFA",
"*8 c #5E5E5E",
"*9 c #808080",
"*@ c #1E1E1E",
"*# c #1C1C1C",
"*; c #959595",
"*: c #D1D1D1",
"*= c #5E5E5E",
"*+ c #4A4A4A",
"*% c #888888",
"*$ c #828282",
"*( c #FCFCFC",
"*) c #1F1F1F",
"*[ c #D4D4D4",
"*] c #747474",
"a. c #999999",
"a, c #606060",
"a- c #EEEEEE",
"a* c #404040",
"aa c #999999",
"ab c #818181",
"ac c #FDFDFD",
"ad c #686868",
"ae c #1E1E1E",
"af c #616161",
"ag c #E0E0E0",
"ah c #989898",
"ai c #989898",
"aj c #CECECE",
"ak c #EAEAEA",
"al c #000000",
"am c #BDBDBD",
"an c #F7F7F7",
"ao c #282828",
"ap c #838383",
"aq c #676767",
"ar c #1C1C1C",
"as c #020202",
"at c #F7F7F7",
"au c #4A4A4A",
"av c #CCCCCC",
"aw c #989898",
"ax c #A2A2A2",
"ay c #CACACA",
"az c #656565",
"aA c #E2E2E2",
"aB c #0F0F0F",
"aC c #CECECE",
"aD c #D9D9D9",
"aE c #141414",
"aF c #848484",
"aG c #F9F9F9",
"aH c #191919",
"aI c #DFDFDF",
"aJ c #D2D2D2",
"aK c #939393",
"aL c #858585",
"aM c #0C0C0C",
"aN c #F2F2F2",
"aO c #979797",
"aP c #A9A9A9",
"aQ c #C7C7C7",
"aR c #6C6C6C",
"aS c #D9D9D9",
"aT c #141414",
"aU c #E6E6E6",
"aV c #BFBFBF",
"aW c #000000",
"aX c #818181",
"aY c #F7F7F7",
"aZ c #797979",
"a0 c #1A1A1A",
"a1 c #B4B4B4",
"a2 c #4C4C4C",
"a3 c #040404",
"a4 c #F6F6F6",
"a5 c #FAFAFA",
"a6 c #DCDCDC",
"a7 c #A9A9A9",
"a8 c #C4C4C4",
"a9 c #D5D5D5",
"a@ c #858585",
"a# c #333333",
"a; c #828282",
"a: c #F6F6F6",
"a= c #7B7B7B",
"a+ c #191919",
"a% c #878787",
"a$ c #363636",
"a( c #DDDDDD",
"a) c #949494",
"a[ c #ADADAD",
"a] c #B4B4B4",
"b. c #737373",
"b, c #D2D2D2",
"b- c #0A0A0A",
"b* c #CACACA",
"ba c #FDFDFD",
"bb c #1F1F1F",
"bc c #828282",
"bd c #F2F2F2",
"be c #7E7E7E",
"bf c #4C4C4C",
"bg c #666666",
"bh c #0F0F0F",
"bi c #F9F9F9",
"bj c #888888",
"bk c #B0B0B0",
"bl c #AFAFAF",
"bm c #787878",
"bn c #C8C8C8",
"bo c #1A1A1A",
"bp c #CCCCCC",
"bq c #717171",
"br c #8B8B8B",
"bs c #E7E7E7",
"bt c #828282",
"bu c #151515",
"bv c #FFFFFF",
"bw c #F0F0F0",
"bx c #D3D3D3",
"by c #7F7F7F",
"bz c #BDBDBD",
"bA c #A2A2A2",
"bB c #BBBBBB",
"bC c #191919",
"bD c #E6E6E6",
"bE c #545454",
"bF c #DFDFDF",
"bG c #131313",
"bH c #BFBFBF",
"bI c #C4C4C4",
"bJ c #989898",
"bK c #8A8A8A",
"bL c #B6B6B6",
"bM c #959595",
"bN c #555555",
"bO c #7F7F7F",
"bP c #DADADA",
"bQ c #949494",
"bR c #FFFFFF",
"bS c #070707",
"bT c #656565",
"bU c #EFEFEF",
"bV c #747474",
"bW c #C8C8C8",
"bX c #8A8A8A",
"bY c #909090",
"bZ c #A6A6A6",
"b0 c #7F7F7F",
"b1 c #383838",
"b2 c #848484",
"b3 c #D3D3D3",
"b4 c #979797",
"b5 c #FFFFFF",
"b6 c #040404",
"b7 c #0A0A0A",
"b8 c #F5F5F5",
"b9 c #C1C1C1",
"b@ c #030303",
"b# c #D8D8D8",
"b; c #646464",
"b: c #7C7C7C",
"b= c #9E9E9E",
"b+ c #090909",
"b% c #D5D5D5",
"b$ c #838383",
"b( c #C5C5C5",
"b) c #9B9B9B",
"b[ c #080808",
"b] c #7F7F7F",
"c. c #979797",
"c, c #5F5F5F",
"c- c #DADADA",
"c* c #676767",
"ca c #A9A9A9",
"cb c #8B8B8B",
"cc c #101010",
"cd c #CBCBCB",
"ce c #C8C8C8",
"cf c #BBBBBB",
"cg c #A7A7A7",
"ch c #FCFCFC",
"ci c #070707",
"cj c #181818",
"ck c #8E8E8E",
"cl c #A7A7A7",
"cm c #E5E5E5",
"cn c #585858",
"co c #BABABA",
"cp c #818181",
"cq c #151515",
"cr c #E9E9E9",
"cs c #ABABAB",
"ct c #838383",
"cu c #ACACAC",
"cv c #B0B0B0",
"cw c #FBFBFB",
"cx c #030303",
"cy c #767676",
"cz c #E5E5E5",
"cA c #4D4D4D",
"cB c #F1F1F1",
"cC c #E0E0E0",
"cD c #464646",
"cE c #F7F7F7",
"cF c #494949",
"cG c #C7C7C7",
"cH c #6C6C6C",
"cI c #808080",
"cJ c #818181",
"cK c #A3A3A3",
"cL c #B6B6B6",
"cM c #C3C3C3",
"cN c #CECECE",
"cO c #353535",
"cP c #FBFBFB",
"cQ c #313131",
"cR c #DBDBDB",
"cS c #606060",
"cT c #9F9F9F",
"cU c #474747",
"cV c #949494",
"cW c #C5C5C5",
"cX c #F5F5F5",
"cY c #1C1C1C",
"cZ c #E8E8E8",
"c0 c #858585",
"c1 c #919191",
"c2 c #2C2C2C",
"c3 c #060606",
"c4 c #1C1C1C",
"c5 c #525252",
"c6 c #323232",
"c7 c #C8C8C8",
"c8 c #A9A9A9",
"c9 c #848484",
"c@ c #898989",
"c# c #EDEDED",
"c; c #2E2E2E",
"c: c #EEEEEE",
"c= c #989898",
"c+ c #A3A3A3",
"c% c #212121",
"c$ c #101010",
"c( c #0B0B0B",
"c) c #010101",
"c[ c #3B3B3B",
"c] c #707070",
"d. c #F8F8F8",
"d, c #868686",
"d- c #E9E9E9",
"d* c #252525",
"da c #D9D9D9",
"db c #F0F0F0",
"dc c #5D5D5D",
"dd c #F6F6F6",
"de c #131313",
"df c #222222",
"dg c #F6F6F6",
"dh c #292929",
"di c #0D0D0D",
"dj c #FCFCFC",
"dk c #EAEAEA",
"dl c #2A2A2A",
"dm c #666666",
"dn c #E3E3E3",
"do c #DDDDDD",
"dp c #888888",
"dq c #F6F6F6",
"dr c #FEFEFE",
"ds c #050505",
"dt c #303030",
"du c #DDDDDD",
"dv c #252525",
"dw c #1B1B1B",
"dx c #0A0A0A",
"dy c #F8F8F8",
"dz c #E7E7E7",
"dA c #060606",
"dB c #838383",
"dC c #5A5A5A",
"dD c #EFEFEF",
"dE c #D9D9D9",
"dF c #121212",
"dG c #C6C6C6",
"dH c #F8F8F8",
"dI c #F7F7F7",
"dJ c #F9F9F9",
"dK c #7A7A7A",
"dL c #3D3D3D",
"dM c #080808",
"dN c #969696",
"dO c #929292",
"dP c #4F4F4F",
"dQ c #484848",
"dR c #FBFBFB",
"dS c #D3D3D3",
"dT c #131313",
"dU c #222222",
"dV c #181818",
"dW c #0D0D0D",
"dX c #292929",
"dY c #F8F8F8",
"dZ c #0A0A0A",
"d0 c #C6C6C6",
"d1 c #0B0B0B",
"d2 c #060606",
"d3 c #1E1E1E",
"d4 c #404040",
"d5 c #444444",
"d6 c #414141",
"d7 c #5D5D5D",
"d8 c #E8E8E8",
"d9 c #9C9C9C",
"d@ c #ADADAD",
"d# c #060606",
"d; c #0B0B0B",
"d: c #212121",
"d= c #1A1A1A",
"d+ c #000000",
"d% c #737373",
"d$ c #757575",
"....................................................................................................",
"....................................................................................................",
"...........................................D*O*Z*#*o-Jas............................................",
"................................-K-X-#*b*p.M,t.h.h.h.HataIa1a%bf.=..................................",
"..........................-.-l-y-L.h.h.h.h.h.h.h.h.h.h.h.h.h.h.hbvbHbTb7............................",
"......................,T,@-,.h.h.h.h.h.h.h.h.h.h.h.h.h.haJa2a$bgbw.h.hb8bMcj........................",
"....................,E,U.h.h.h.h.h.h.h.h.h.h.h.h.h.h.h.haKa3..bhbx.h.h.h.hancya3....................",
"................,,,p.0.h.h.h.h.h.h-Y-;*c*q,Z.h.h.h.h.h.h.ha4a(bi.h.h.h.h.h.h.havcY..................",
"...............9,-.h.h.h.h.h.h.h.h-Z-:...a*D.h.h.h.h.h.h.h.h.h.h.h.h.h.h.h.h.h.hcZc;................",
"...............@.h.h.h.h.h.h.h.h.h.h-=*d*r.h.h.h.h.h.h.h.h.h.h.h.h.h.h.h.h.h.h.h.hc:d*..............",
".............V.0.h.h.h.h.h.h.h.h.h.h.h.h.h.h.h.h.h.h.h.h.h.h.h.h.h.h.hb9b]ckcz.h.h.hdab-............",
"...........q.W.h.h.h.h.h.h.h.h.h.h.h.h.h.h.h.h.h.h.h.h.h.h.h.h.h.h.hbUb@....cA.h.h.h.hdp............",
"...........z.h.h,*,q,F,V.h.h.h.h.h.h.h.h.h.h.h.h.h.h.h.h.h.h.h.h.h.h.hb#c.clcB.h.h.h.hdqdF..........",
"...........A.h.h,a....,W,i.h.h.h.h.h.h.h.h.h.h.h.h.h.h.h.h.h.h.h.h.h.h.h.h.h.h.h.h.h.h.h*v..........",
".........j.B.h.h,b,r,G,X.h.h.h.h.h.h.h.h.h.h.h.h.h.h.h.h.h.h.h.h.h.h.h.h.h.h.h.h.h.h.h.hdG..........",
".........k.h.h.h.h.h.h.h.h.h.h.h.h.h.h.h.h.h.h.h.h.h.h.h.h.h.h.h.h.h.h.h.h.h.PcMc0c=db.hdH*W........",
".........l.h.h.h.h.h.h.h.h.h.h.h.h.h.h.h.h.h.h.h.h*[afauaLa5.h.h.h.h.h.h.h.hcC,,....dc.h.hdT........",
".........m.h.h.h.h.h.h.h.h.h.h.h.h.h.h.h.h.h.h.h.h*].w..aMa6.h.h.h.h.h.h.h.h.hcNc1c+dd.h.hdU........",
".........n.C.X.h.h.h.h.h.h.h.h.h.h.h.h.h.h.h.h.h.h.HagavaN.h.h.h.h.h.h.h.h.h.h.h.h.h.hdrdIdV........",
"...........D.Y.#,c,s,H,Y,#--.i-z-M-0-+*e*s*E*P*0-ca.ahawaO*;a)bjbyaZbVb;c,.xcDcOc2c%deds*J..........",
".........o.E.Z.;,d.Y.w.......................................................w..c3c$dfdtdf..........",
".........p.h.h.h.h,t,I,Z,;-*,j-A-N-1-%*f*t*F*Q*1*;*;aiaxaPa7a[bkbzbIbWaJc-cmcEcP.h.h.h.hdJdW........",
".........q.F.0.h.h.h.h.h.h.h.h.h.h.h.h.h.h.h.h.h.h.h.h.h.h.h.h.h.h.h.h.h.h.h.h.h.hbRdgdudKc)........",
".............1.:,e,u,J,0,:-a-m-B-O-2-$*g*u*G*R*2*:*2ajayaQa8a]blbAbJbXb:c*cncFcQc4c(.o..............",
"...........G.2.=,f................................................................c)-KdvdLdX........",
".......a.r.H.h.h,g,v,K,1,=-b-n-C-P-3-(*h*v*H*S*3*=a,*3azaR*,b.bm.TbKbYawcacocGcR*w.B.h.h.h,td7......",
".......b.h.h.h.h.h.h.h.h.h.h.h.h.h.h.h.h.h.h.h.h.h.h.h.h.h.h.h.h.h.h.h.h.h.h.h.h.h.h.h.h.h.hd8*W....",
".......c.h.h.h.h.h.h.h.h.h.h.h.h.h.h.h.h.h.h.h.h.h.h.h.h.h.h.h.h.h.h.h.h.h.h.h.h.h.h.h.h.h.h.hd:....",
".......d.h.h.h.h.h.h.h.h.h.h.h.h.h.h.h.h.h.h.h.h.h.h.h.h.h.h.h.h.h.h.h.h.h.h.h.h.h.h.h.h.h.h.Pd=....",
".......e.s.I.h.h.h.h.h.h.h.h.h.h.h.h.h.h.h.h.h.h.h.h.h.h.h.h.h.h.h.h.h.h.h.h.h.h.h.h.h.h.0dYd9d+....",
"...........J.3.+,h,w,L,2,+-c-o-D-Q-4-)*i*w*I*T*4*4a-akaAaSa9b,bnbBbLbZb=cbcpcHcSc5c[dhdwdM,,........",
"...........K.i.%....................................................................didx............",
".........t.L.h.h.U..........-p-E-R-5..........*5*+a*al..........bCbMb0b+..........c]djdydNdZ........",
".......f.h.M.4.$,i,x......-d-q.h.h-6-[......-x*6.h.hamaB......bobD.h.havcc......c6chdkdz.hd0b+......",
".....,.g.u.N...(,j,y,M..,%.M-r-F-S-7-]....*J*U*7*%aaanaCaT..b-bp-LbNb1b%cdcq..,,c7d.dldAdO.hd@.y....",
".....-.h.v......,k.I,N,3.0-e-s....-8*.*j*x*K.P*8....aoaDaUa@b**rbE....-5cecrcIcT.hc]....,,bl.hd%....",
".....*.i.w........,z.h.h,$-f........*,*k*y.h*V........aEaV.hbabq........-xcs.H.hc8.o......d1*pd$....",
"...................o,O,4,(...........w*l*z*L*W..........aWa#bb..............,kcU.9..........d#......",
"....................................................................................................",
"...........O.5.),l,A,P,5,)-g-t-G-T-G-t-T-G-G-t*9*$abapaFaXa;bcbrbrbOb2b$bOctcJbOc9d,aXdBdPd2........",
".........x.P.h.h.h.h.h.h.h.h.h.h.h.h.h.h.h.h.h.h.h.h.h.h.h.h.h.h.h.h.h.h.h.h.h.h.h.h.h.h.h*wd;......",
".........y.Q.6.[,m,B,Q,6,[-h-u-H-U-9*-*m*A*M*X*X*(ac*(aGaYa:bdbsbFbPb3b(cfcucKcVc@-RdmdCdQd3........",
"...........w..........................................................................c)*W,,........",
"...........R.7.],n,C,R,7,]-i-v-I-V,@***n*B*B*B*B*Badaq**aZa=bebt-vbQb4b)cgcvcLcW,na9dndDdRd4........",
"...........S.h.h.h.h.h.h.h.h.h.h.h.h.h.h.h.h.h.h.h.h.h.h.h.h.h.h.h.h.h.h.h.h.h.h.h.h.h.h.hd5........",
"...........T.h.h.h.h.h.h.h.h.h.h.h.h.h.h.h.h.h.h.h.h.h.h.h.h.h.h.h.h.h.h.h.h.h.h.h.h.h.h.hd6........",
"...........U.8,.,o,D,S,8,8-j-w.H.h.h.h.h.h.h.h.h.h.h.h.h.h.h.h.h.hbRb5*kchcw,ScXc#d-dodEdSc6........",
"......................,9.Y-k-x-J-W-@*a*o*C*N*Y*@*)aearaHa0a+*abubGbSb6b[cicx........................",
"....................................................................................................",
"...................................................................................................."
};
