/* XPM */
static char *result[] = {
/* columns rows colors chars-per-pixel */
"50 50 166 2 ",
"   c black",
".  c #090909",
"X  c #232323",
"o  c #4B4B4B",
"O  c #6D6D6D",
"+  c #8B8B8B",
"@  c gray63",
"#  c gray69",
"$  c gray70",
"%  c #A7A7A7",
"&  c gray58",
"*  c gray47",
"=  c #555555",
"-  c #2C2C2C",
";  c gray5",
":  c gray6",
">  c #646464",
",  c #B9B9B9",
"<  c #EFEFEF",
"1  c white",
"2  c #F6F6F6",
"3  c #C3C3C3",
"4  c gray52",
"5  c #3E3E3E",
"6  c #040404",
"7  c #0C0C0C",
"8  c gray37",
"9  c gray92",
"0  c #DFDFDF",
"q  c gray40",
"w  c #181818",
"e  c #222222",
"r  c gray73",
"t  c #FDFDFD",
"y  c #EAEAEA",
"u  c #6C6C6C",
"i  c gray4",
"p  c gray23",
"a  c gray90",
"s  c #C5C5C5",
"d  c #373737",
"f  c #505050",
"g  c #F1F1F1",
"h  c gray96",
"j  c #717171",
"k  c #020202",
"l  c #010101",
"z  c #535353",
"x  c gray99",
"c  c #FEFEFE",
"v  c #B1B1B1",
"b  c #444444",
"n  c #F3F3F3",
"m  c gray",
"M  c gray7",
"N  c #EEEEEE",
"B  c gray8",
"V  c #131313",
"C  c #CACACA",
"Z  c #808080",
"A  c #838383",
"S  c #434343",
"D  c #9D9D9D",
"F  c gray77",
"G  c #101010",
"H  c gray21",
"J  c gray97",
"K  c #C1C1C1",
"L  c gray1",
"P  c #3F3F3F",
"I  c gray12",
"U  c #E4E4E4",
"Y  c #747474",
"T  c #F4F4F4",
"R  c #9B9B9B",
"E  c gray28",
"W  c #F8F8F8",
"Q  c #A9A9A9",
"!  c #353535",
"~  c gray64",
"^  c gray82",
"/  c #F9F9F9",
"(  c gray84",
")  c #CDCDCD",
"_  c #DADADA",
"`  c gray48",
"'  c gray49",
"]  c gainsboro",
"[  c gray19",
"{  c #FBFBFB",
"}  c gray93",
"|  c #6A6A6A",
" . c #E9E9E9",
".. c #2F2F2F",
"X. c #060606",
"o. c #CBCBCB",
"O. c #9A9A9A",
"+. c gray85",
"@. c gray88",
"#. c #9F9F9F",
"$. c #5F5F5F",
"%. c gray46",
"&. c #979797",
"*. c #A2A2A2",
"=. c #7E7E7E",
"-. c gray79",
";. c gray76",
":. c #C8C8C8",
">. c gray33",
",. c #0B0B0B",
"<. c gray87",
"1. c gray89",
"2. c gray39",
"3. c gray3",
"4. c gray18",
"5. c gray60",
"6. c #777777",
"7. c #AAAAAA",
"8. c gray43",
"9. c gray98",
"0. c #626262",
"q. c gray55",
"w. c #B2B2B2",
"e. c #414141",
"r. c gray66",
"t. c #898989",
"y. c #929292",
"u. c #E6E6E6",
"i. c #2D2D2D",
"p. c gray10",
"a. c gray2",
"s. c #888888",
"d. c #959595",
"f. c gray36",
"g. c #AFAFAF",
"h. c #AEAEAE",
"j. c #A0A0A0",
"k. c gray25",
"l. c #676767",
"z. c gray24",
"x. c #797979",
"c. c #686868",
"v. c gray42",
"b. c gray44",
"n. c #848484",
"m. c gray59",
"M. c #8E8E8E",
"N. c #191919",
"B. c #A4A4A4",
"V. c gray15",
"C. c gray71",
"Z. c #393939",
"A. c #585858",
"S. c #BBBBBB",
"D. c #4E4E4E",
"F. c gray67",
"G. c #484848",
"H. c #070707",
"J. c gray34",
"K. c gray81",
"L. c #4C4C4C",
"P. c #111111",
"I. c gray68",
"U. c #B4B4B4",
"Y. c #868686",
"T. c #494949",
/* pixels */
"                                                                                                    ",
"                                                                                                    ",
"                                                                                                    ",
"                                . X o O + @ # $ # % & * = - ;                                       ",
"                            : > , < 1 1 1 1 1 1 1 1 1 1 1 2 3 4 5 6                                 ",
"                        7 8 9 1 1 1 1 1 1 1 1 1 1 1 1 1 1 1 1 1 1 0 q w                             ",
"                      e r t 1 1 1 1 1 1 1 1 1 1 1 1 1 1 1 1 1 1 1 1 1 y u i                         ",
"                    p a 1 1 1 1 1 1 1 1 1 1 1 1 1 1 1 1 1 1 1 1 1 1 1 1 1 s d                       ",
"                  f g 1 1 1 1 1 1 1 1 1 1 1 1 1 1 1 1 1 1 1 1 1 1 1 1 1 1 1 h j k                   ",
"              l z x 1 1 1 1 1 1 1 1 1 1 1 1 1 1 1 1 1 1 1 1 1 1 1 1 1 1 1 1 1 c v .                 ",
"              b n 1 1 1 1 1 1 1 1 1 1 1 1 1 1 1 1 1 1 1 1 1 1 1 1 1 1 1 1 1 1 1 1 m M               ",
"            - N 1 1 1 1 1 1 1 1 1 1 1 1 1 1 1 1 1 1 1 1 1 1 1 1 1 1 1 1 1 1 1 1 1 1 3 B             ",
"          V C 1 1 1 1 1 1 1 1 1 1 1 1 1 1 1 1 1 1 1 1 1 1 1 1 1 1 1 1 1 1 1 1 1 1 1 1 @ :           ",
"          Z 1 1 1 1 1 1 1 1 1 1 1 1 1 1 1 1 1 1 1 1 1 1 1 1 1 1 1 1 1 1 1 1 1 1 1 1 1 c A           ",
"        - c 1 1 1 1 1 1 1 1 1 1 1 1 1 1 1 1 1 1 1 1 1 1 1 1 1 1 1 1 1 1 1 1 1 1 1 1 1 1 1 S         ",
"      6 D 1 1 1 1 1 1 1 1 1 1 1 1 1 1 1 1 1 1 1 1 1 1 1 1 1 1 1 1 1 1 1 1 1 1 1 1 1 1 1 1 F G       ",
"      H J 1 1 1 1 1 1 1 1 1 1 1 1 1 1 1 1 1 1 1 1 1 1 1 1 1 1 1 1 1 1 1 1 1 1 1 1 1 1 1 1 1 >       ",
"      A 1 1 1 1 1 1 1 1 1 1 1 1 1 1 1 1 1 1 1 1 1 1 1 1 1 1 1 1 1 1 1 1 1 1 1 1 1 1 1 1 1 1 K 6     ",
"    L s 1 1 1 1 1 1 1 1 1 1 1 1 1 1 1 1 1 1 1 1 1 1 1 1 1 1 1 1 1 1 1 1 1 1 1 1 1 1 1 1 1 1 n P     ",
"    I U 1 1 1 1 1 1 1 1 1 1 1 1 1 1 1 1 1 1 1 1 1 1 1 1 1 1 1 1 1 1 1 1 1 1 1 1 1 1 1 1 1 1 1 Y     ",
"    5 T 1 1 1 1 1 1 1 1 1 1 1 1 1 1 1 1 1 1 1 1 1 1 1 1 1 1 1 1 1 1 1 1 1 1 1 1 1 1 1 1 1 1 1 R     ",
"    E W 1 1 1 1 1 1 1 1 1 1 1 1 1 1 1 1 1 1 1 1 1 1 1 1 1 1 1 1 1 1 1 1 1 1 1 1 1 1 1 1 1 1 1 Q     ",
"    ! < 1 1 1 1 1 1 1 1 1 1 1 1 1 1 1 1 1 1 1 1 1 1 1 1 1 1 1 1 1 1 1 1 1 1 1 1 1 1 1 1 1 1 1 ~     ",
"    i ^ 1 / ( ) 1 1 1 1 1 1 1 1 1 1 1 1 1 1 1 1 1 1 1 1 1 1 1 1 1 1 1 1 1 1 1 1 1 1 1 h _ T 1 `     ",
"      ' 1 ] i [ { 1 1 1 1 1 1 1 1 1 1 1 1 1 1 1 1 1 1 1 1 1 1 1 1 1 1 1 1 1 < } 1 1 1 $ 7 |  ...    ",
"      : $ / ..X.o.1 1 1 1 1 O.S +.1 1 1 1 1 } , @.1 1 1 1 1 N #.^ 1 1 1 1 1 4 l v 1 1 $.  D %.      ",
"        G &.*.  E 1 1 1 1 1 =.  -.1 1 1 1 1 ;.  $.1 1 1 1 1 :.  f 1 1 1 1 { >.,.<.1 1.7 7 2.3.      ",
"          l 4.L   % 1 1 1 1 5.  ~ 1 1 1 1 1 v   6.1 1 1 1 1 7.  8.1 1 1 1 _ V 4.9.x z   k           ",
"                  B 0.q.w.^ # L e.W 1 1 1 1 r.  A 1 1 1 1 1 t.  y.1 t n u.+   i.| d X.              ",
"                          6 p.L a.8 ` s.d.#.8.  f.g.g.h.% j.k.  >.l.z z.e .                         ",
"                                                                                                    ",
"                                    *.7.& A x.O q c.v.b.x.n.p                                       ",
"                                  . 9.1 1 1 1 1 1 1 1 1 1 1 m.                                      ",
"                                  z.1 1 1 1 1 1 1 1 1 1 1 1 F                                       ",
"                                  O 1 1 1 1 1 1 1 1 1 1 1 1 <.i                                     ",
"                                  M.1 1 1 1 1 1 1 1 1 1 1 1 } N.                                    ",
"                                  B.1 1 1 1 1 1 1 1 1 1 1 1 9.V.                                    ",
"                                  C.1 1 1 1 1 1 1 1 1 1 1 1 1 Z.                                    ",
"                                  m 1 1 1 1 1 1 1 1 1 1 1 1 1 f                                     ",
"                                  3 1 1 1 1 1 1 1 1 1 1 1 1 1 A.                                    ",
"                                  S.1 1 1 1 1 1 1 1 1 1 1 1 1 D.                                    ",
"                                  F.1 1 1 1 1 1 1 1 1 1 1 1 1 Z.                                    ",
"                                  q.1 1 1 1 1 1 1 1 1 1 1 1 2 e                                     ",
"                                  G.1 1 1 1 1 1 1 1 1 1 1 1 <.,.                                    ",
"                                  X.u.1 1 1 1 1 1 1 1 1 1 1 h.                                      ",
"                                    | J 1 1 1 1 1 1 1 1 1 g ..                                      ",
"                                    H.J.K./ 1 1 1 1 1 2 ;.L.                                        ",
"                                        P.= + I.U.r.Y.T.7                                           ",
"                                                                                                    ",
"                                                                                                    "
};
