/* XPM */
static char *result[] = {
/* columns rows colors chars-per-pixel */
"50 50 205 2 ",
"   c black",
".  c #181818",
"X  c #3A3A3A",
"o  c #5A5A5A",
"O  c gray45",
"+  c #898989",
"@  c #9A9A9A",
"#  c gray66",
"$  c #B4B4B4",
"%  c gray72",
"&  c #B7B7B7",
"*  c #AFAFAF",
"=  c gray64",
"-  c #939393",
";  c gray49",
":  c gray37",
">  c #101010",
",  c #060606",
"<  c #252525",
"1  c gray58",
"2  c gray76",
"3  c #E1E1E1",
"4  c #F1F1F1",
"5  c #FEFEFE",
"6  c white",
"7  c gray95",
"8  c gray86",
"9  c #B1B1B1",
"0  c #767676",
"q  c #373737",
"w  c gray4",
"e  c #0E0E0E",
"r  c #ECECEC",
"t  c gray98",
"y  c gray39",
"u  c gray7",
"i  c #131313",
"p  c gray43",
"a  c gray93",
"s  c #6A6A6A",
"d  c gray6",
"f  c #434343",
"g  c gray87",
"h  c #D8D8D8",
"j  c gray20",
"k  c #040404",
"l  c #FBFBFB",
"z  c #F9F9F9",
"x  c #686868",
"c  c gray1",
"v  c #7E7E7E",
"b  c gray2",
"n  c gray99",
"m  c #929292",
"M  c #020202",
"N  c #161616",
"B  c #D2D2D2",
"V  c gray40",
"C  c #777777",
"Z  c gray97",
"A  c gray83",
"S  c #B9B9B9",
"D  c #A2A2A2",
"F  c #909090",
"G  c gray51",
"H  c #7C7C7C",
"J  c #808080",
"K  c #8B8B8B",
"L  c #ACACAC",
"P  c #C3C3C3",
"I  c #DDDDDD",
"U  c #343434",
"Y  c gray89",
"T  c #4C4C4C",
"R  c #282828",
"E  c #151515",
"W  c gray3",
"Q  c #0C0C0C",
"!  c #191919",
"~  c #2C2C2C",
"^  c #515151",
"/  c #7B7B7B",
"(  c #A7A7A7",
")  c LightGray",
"_  c #A0A0A0",
"`  c #F4F4F4",
"'  c gray12",
"]  c #010101",
"[  c #444444",
"{  c #626262",
"}  c gray59",
"|  c gray61",
" . c gray62",
".. c #9B9B9B",
"X. c #555555",
"o. c gray10",
"O. c #070707",
"+. c #3C3C3C",
"@. c gray73",
"#. c #F3F3F3",
"$. c gray19",
"%. c gray13",
"&. c gray92",
"*. c gray60",
"=. c #1E1E1E",
"-. c #232323",
";. c gray35",
":. c #E9E9E9",
">. c #E7E7E7",
",. c #A5A5A5",
"<. c DimGray",
"1. c gray22",
"2. c #111111",
"3. c gray77",
"4. c gray96",
"5. c #1B1B1B",
"6. c gray30",
"7. c #C0C0C0",
"8. c #535353",
"9. c #9F9F9F",
"0. c gray18",
"q. c gray79",
"w. c #E4E4E4",
"e. c #CECECE",
"r. c gray81",
"t. c gray53",
"y. c gray88",
"u. c gray9",
"i. c gray55",
"p. c gray33",
"a. c #D7D7D7",
"s. c #747474",
"d. c #B6B6B6",
"f. c #393939",
"g. c gray26",
"h. c gray84",
"j. c #090909",
"k. c gray11",
"l. c #FDFDFD",
"z. c #979797",
"x. c gray5",
"c. c gray21",
"v. c #4E4E4E",
"b. c #5B5B5B",
"n. c gray29",
"m. c gray91",
"M. c #BBBBBB",
"N. c gray16",
"B. c gray78",
"V. c #9D9D9D",
"C. c #E6E6E6",
"Z. c gray94",
"A. c gray68",
"S. c gray36",
"D. c #F6F6F6",
"F. c #323232",
"G. c gray74",
"H. c gray23",
"J. c #0B0B0B",
"K. c #EFEFEF",
"L. c #CACACA",
"P. c #484848",
"I. c #585858",
"U. c gray56",
"Y. c #CDCDCD",
"T. c gray48",
"R. c #353535",
"E. c #464646",
"W. c #6C6C6C",
"Q. c gray27",
"!. c gray54",
"~. c #EEEEEE",
"^. c #DFDFDF",
"/. c #1D1D1D",
"(. c gray8",
"). c #D0D0D0",
"_. c gray38",
"`. c #BCBCBC",
"'. c gray52",
"]. c #848484",
"[. c #C5C5C5",
"{. c #272727",
"}. c gray47",
"|. c gray82",
" X c gray90",
".X c #888888",
"XX c gray46",
"oX c #EAEAEA",
"OX c #2D2D2D",
"+X c #222222",
"@X c #D5D5D5",
"#X c #A9A9A9",
"$X c #414141",
"%X c gray15",
"&X c #E2E2E2",
"*X c gray42",
"=X c #818181",
"-X c gray",
";X c gray14",
":X c gray32",
">X c #A4A4A4",
",X c #2A2A2A",
"<X c #CBCBCB",
"1X c #F8F8F8",
"2X c #3F3F3F",
/* pixels */
"                                                                                                    ",
"                                                                                                    ",
"                                . X o O + @ # $ % & * = - ; : X >                                   ",
"                      , < o 1 2 3 4 5 6 6 6 6 6 6 6 6 6 6 6 5 7 8 9 0 q w                           ",
"                  e : * r 6 6 6 6 6 6 6 6 6 6 6 6 6 6 6 6 6 6 6 6 6 6 t & y u                       ",
"              i p 4 6 6 6 6 6 6 6 6 6 6 6 6 6 6 6 6 6 6 6 6 6 6 6 6 6 6 6 6 a s d                   ",
"            f g 6 6 6 6 6 6 6 6 6 6 6 6 6 6 6 6 6 6 6 6 6 6 6 6 6 6 6 6 6 6 6 5 h j                 ",
"        k O l 6 6 6 6 6 6 6 6 6 6 6 6 6 6 6 6 6 6 6 6 6 6 6 6 6 6 6 6 6 6 6 6 6 6 z x k             ",
"      c 0 5 6 6 6 6 6 6 6 6 6 6 6 6 6 6 6 6 6 6 6 6 6 6 6 6 6 6 6 6 6 6 6 6 6 6 6 6 5 v b           ",
"      o n 6 6 6 6 6 6 6 6 6 6 6 6 6 6 6 6 6 6 6 6 6 6 6 6 6 6 6 6 6 6 6 6 6 6 6 6 6 6 6 m M         ",
"    N B 6 6 6 6 6 6 6 6 6 6 6 6 6 6 6 6 6 6 6 6 6 6 6 6 6 6 6 6 6 6 6 6 6 6 6 6 6 6 6 6 5 V         ",
"    C 5 6 6 6 6 6 6 6 6 6 6 6 Z A S D F G ; H J K @ L P I z 6 6 6 6 6 6 6 6 6 6 6 6 6 6 6 r U       ",
"    P 6 6 6 6 6 6 6 5 Y $ H T R E W                 M Q ! ~ ^ / ( ) 7 6 6 6 6 6 6 6 6 6 6 6 _ c     ",
"  c ` 6 6 6 6 6 t $ x ' ]   M ' [ { H K } |  ...m G p X.X o.      O.+.C @.#.6 6 6 6 6 6 6 6 r $.    ",
"  %.6 6 6 6 &.*.=.  c -.;.| :.6 6 6 6 6 6 6 6 6 6 6 6 6 6 6 >.,.<.1.i ]   2.<.3.4.6 6 6 6 6 6 J     ",
"  U 6 6 l ..5.  c 6.7.4.6 6 6 6 6 6 6 6 6 6 6 6 6 6 6 6 6 6 6 6 6 5 >.9 8.2.  c R 9.4.6 6 6 6 S     ",
"  0.6 q.U   Q s w.6 6 6 6 6 6 6 e.T r.6 6 6 6 6 6 6 6 6 6 6 Z 4.6 6 6 6 6 Z & [ W   u t.r 6 6 y.    ",
"  u.i.u   p.a.6 6 6 6 6 6 6 6 6 1 M u.s.&.6 6 6 6 6 6 6 l d.f.g.t 6 6 6 6 6 6 l h.p j.  k.@ t 4     ",
"  ]   =.D 6 5 % ..l.6 6 6 6 6 6 l.z.x.  j.R c.f v.b.V n.o.  k ^ m.6 6 6 6 6 6 6 6 6 3 p >   g.M.    ",
"    N.B.6 6 y.e , T V.C.6 6 6 Z.A.S.O.                    u L D.6 6 6 6 6 6 w.,.6 6 6 n q.F.  E     ",
"    ^ r 6 6 6 G.H.      J.i x.]       ] 9 K.Y h.L.G.9 P.    ! I.v 1 | U.s.[ J.x.Y.6 6 6 6 ` T.M     ",
"    M g.& Z 6 6 Z.$ / ^ X F.R.E.W.j   X.n 6 6 6 6 6 6 x b Q.-.j.          e $.!.~.6 6 6 6 w.s ]     ",
"        , 6.9.^.5 6 6 6 6 6 6 6 a /.(.).6 6 6 6 6 6 6 _.J.7.a `.@ '.H ]. .[.` 6 6 6 6 h.U.N.        ",
"              ] {.}.( |. XD.6 6 .X  XX5 6 6 6 6 6 6 6 b.x.[.6 6 6 6 6 6 6 z oX) * H OX              ",
"                      c 2.+X+.{ u.  @X6 6 6 6 6 6 6 6 S.Q #X|.B.M.( + s $X%XE c                     ",
"                                  T 6 6 6 6 6 6 6 6 6 :                                             ",
"                                  ( 6 6 6 6 6 6 6 6 6 {                                             ",
"                                e &X6 6 6 6 6 6 6 6 6 *X                                            ",
"                                c.l 6 6 6 6 6 6 6 6 6 XX                                            ",
"                                H 6 6 6 6 6 6 6 6 6 6 =X                                            ",
"                                -X6 6 6 6 6 6 6 6 6 6 1                                             ",
"                                C.6 6 6 6 6 6 6 6 6 6 # ]                                           ",
"                              j.6 6 6 6 6 6 6 6 6 6 6 `.j.                                          ",
"                              ;X6 6 6 6 6 6 6 6 6 6 6 @XN                                           ",
"                              X 6 6 6 6 6 6 6 6 6 6 6 #.<                                           ",
"                              n.6 6 6 6 6 6 6 6 6 6 6 6 H.                                          ",
"                              ^ 6 6 6 6 6 6 6 6 6 6 6 6 :                                           ",
"                              :X6 6 6 6 6 6 6 6 6 6 6 6 =X                                          ",
"                              T 6 6 6 6 6 6 6 6 6 6 6 6 >X                                          ",
"                              H.6 6 6 6 6 6 6 6 6 6 6 6 e.b                                         ",
"                              -.6 6 6 6 6 6 6 6 6 6 6 6 :.,X                                        ",
"                              k l 6 6 6 6 6 6 6 6 6 6 6 l.b.                                        ",
"                                @X6 6 6 6 6 6 6 6 6 6 6 6 U.                                        ",
"                                *.6 6 6 6 6 6 6 6 6 6 6 6 <X                                        ",
"                                P.5 6 6 6 6 6 6 6 6 6 6 6 1Xx.                                      ",
"                                d I 6 6 6 6 6 6 6 6 6 6 6 5 ~                                       ",
"                                  p.a 6 6 6 6 6 6 6 6 6 D.@ c                                       ",
"                                    2X# 7 6 6 6 6 6 Z.9 X.,                                         ",
"                                        W U o s ;.0.k                                               ",
"                                                                                                    "
};
