/* XPM */
static char *graphic[] = {
"50 50 202 2",
".. c #000000",
"., c #0B0B0B",
".- c #878787",
".* c #8E8E8E",
".a c #888888",
".b c #090909",
".c c #080808",
".d c #4D4D4D",
".e c #FCFCFC",
".f c #FFFFFF",
".g c #FBFBFB",
".h c #FCFCFC",
".i c #FFFFFF",
".j c #F9F9F9",
".k c #4E4E4E",
".l c #464646",
".m c #4B4B4B",
".n c #FBFBFB",
".o c #3A3A3A",
".p c #676767",
".q c #767676",
".r c #202020",
".s c #454545",
".t c #FDFDFD",
".u c #4F4F4F",
".v c #B5B5B5",
".w c #D2D2D2",
".x c #D9D9D9",
".y c #ACACAC",
".z c #4B4B4B",
".A c #FEFEFE",
".B c #FFFFFF",
".C c #F7F7F7",
".D c #F0F0F0",
".E c #FCFCFC",
".F c #4A4A4A",
".G c #FAFAFA",
".H c #1C1C1C",
".I c #A9A9A9",
".J c #4A4A4A",
".K c #484848",
".L c #676767",
".M c #5B5B5B",
".N c #3A3A3A",
".O c #4B4B4B",
".P c #DFDFDF",
".Q c #171717",
".R c #CACACA",
".S c #FEFEFE",
".T c #818181",
".U c #DADADA",
".V c #A8A8A8",
".W c #C1C1C1",
".X c #C8C8C8",
".Y c #4D4D4D",
".Z c #F5F5F5",
".0 c #7C7C7C",
".1 c #E8E8E8",
".2 c #4D4D4D",
".3 c #FBFBFB",
".4 c #4C4C4C",
".5 c #515151",
".6 c #9E9E9E",
".7 c #0A0A0A",
".8 c #0F0F0F",
".9 c #454545",
".@ c #A8A8A8",
".# c #474747",
".; c #727272",
".: c #BBBBBB",
".= c #090909",
".+ c #2F2F2F",
".% c #1C1C1C",
".$ c #000000",
".( c #292929",
".) c #C4C4C4",
".[ c #686868",
".] c #DFDFDF",
",. c #212121",
",, c #888888",
",- c #FFFFFF",
",* c #868686",
",a c #E0E0E0",
",b c #E1E1E1",
",c c #1B1B1B",
",d c #868686",
",e c #2E2E2E",
",f c #FEFEFE",
",g c #FEFEFE",
",h c #1C1C1C",
",i c #010101",
",j c #020202",
",k c #010101",
",l c #010101",
",m c #060606",
",n c #050505",
",o c #040404",
",p c #070707",
",q c #080808",
",r c #040404",
",s c #0C0C0C",
",t c #060606",
",u c #060606",
",v c #060606",
",w c #0B0B0B",
",x c #3A3A3A",
",y c #323232",
",z c #343434",
",A c #363636",
",B c #323232",
",C c #323232",
",D c #2C2C2C",
",E c #333333",
",F c #333333",
",G c #2E2E2E",
",H c #323232",
",I c #1B1B1B",
",J c #E0E0E0",
",K c #222222",
",L c #1E1E1E",
",M c #1C1C1C",
",N c #E5E5E5",
",O c #E8E8E8",
",P c #1C1C1C",
",Q c #1E1E1E",
",R c #E5E5E5",
",S c #EBEBEB",
",T c #1F1F1F",
",U c #1E1E1E",
",V c #EBEBEB",
",W c #E9E9E9",
",X c #1B1B1B",
",Y c #1F1F1F",
",Z c #E5E5E5",
",0 c #1F1F1F",
",1 c #0E0E0E",
",2 c #101010",
",3 c #0F0F0F",
",4 c #0C0C0C",
",5 c #E1E1E1",
",6 c #191919",
",7 c #1B1B1B",
",8 c #E3E3E3",
",9 c #1A1A1A",
",@ c #E3E3E3",
",# c #1E1E1E",
",; c #1A1A1A",
",: c #E8E8E8",
",= c #1F1F1F",
",+ c #191919",
",% c #1F1F1F",
",$ c #1B1B1B",
",( c #242424",
",) c #3C3C3C",
",[ c #3E3E3E",
",] c #3D3D3D",
"-. c #3C3C3C",
"-, c #0C0C0C",
"-- c #010101",
"-* c #1E1E1E",
"-a c #EAEAEA",
"-b c #FDFDFD",
"-c c #1D1D1D",
"-d c #E6E6E6",
"-e c #1E1E1E",
"-f c #5F5F5F",
"-g c #ADADAD",
"-h c #CBCBCB",
"-i c #616161",
"-j c #FBFBFB",
"-k c #5C5C5C",
"-l c #A7A7A7",
"-m c #B6B6B6",
"-n c #3F3F3F",
"-o c #F8F8F8",
"-p c #4D4D4D",
"-q c #8E8E8E",
"-r c #CECECE",
"-s c #A1A1A1",
"-t c #B5B5B5",
"-u c #C0C0C0",
"-v c #929292",
"-w c #454545",
"-x c #DADADA",
"-y c #818181",
"-z c #272727",
"-A c #959595",
"-B c #565656",
"-C c #6C6C6C",
"-D c #838383",
"-E c #404040",
"-F c #ABABAB",
"-G c #1E1E1E",
"-H c #8E8E8E",
"-I c #CACACA",
"-J c #A4A4A4",
"-K c #1D1D1D",
"-L c #2D2D2D",
"-M c #8F8F8F",
"-N c #101010",
"-O c #888888",
"-P c #FCFCFC",
"....................................................................................................",
"....................................................................................................",
".......c.-.*.*.*.*.*.*.*.*.*.*.*.*.*.*.*.*.*.*.*.*.*.*.*.*.*.*.*.*.*.*.*.*.*.*.*.*.*.*.*.*.-.c......",
".....,...l.t.f.G.S.f.f.f.f.f.f.f.f.f.f.f.f.f.f.f.f.f.f.f.f.f.f.f.f.f.f.f.f.f.f.f.f.f.i.f.t.l...,....",
".....-.d...l.t.H.T.f.f.f.f.f.f.f.f.f.f.f.f.f.f.f.f.f.f.f.f.f.f.f.f.f.f.f.f.f.f.f.f-q-z.t.s...d.-....",
".....*.e.m...l.I.U.f.f.f.f.f.f.f.f.f.f.f.f.f.f.f.f.f.f.f.f.f.f.f.f.f.f.f.f.f.f.f.f-r-A.l...O.e.*....",
".....*.f.n.u...l.t.f.f.f.f.f.f.f.f.f.f.f.f.f.f.f.f.f.f.f.f.f.f.f.f.f.f.f.f.f.f.f.f.t.l...u.3.f.*....",
".....*.g.o.v.d...l.t.5.;.f.f.f.f.f.f.f.f.f.f.f.f.f.f.f.f.f.f.f.f.f.f.f.f.f.f-f-k.t.s...d-H-L.f.*....",
".....*.h.p.w.n.J...s.6.:.f.f.f.f.f.f.f.f.f.f.f.f.f.f.f.f.f.f.f.f.f.f.f.f.f.f-g-l.s...J.n-I-M.f.*....",
".....*.f.f.f.f.n.u...l.t.f.f.f.f.f.f.f.f.f.f.f.f.f.f.f.f.f.f.f.f.f.f.f.f.f.f.t.l...u.n.f.f.f.f.*....",
".....*.f.f.f.A.K.V.2...7.8.8.8.8.8.8.8.8.8.8.8.8.8.8.8.8.8.8.8.8.8.8.8.8.8.8.7..-p-s-B.f.f.f.f.*....",
".....*.f.f.f.B.L.W.3.7.=.+.+.+.+,e..,w.+.+.+.+.+,m,m.+.+.+.+,+...$.(.+.+.+.+.=.7.3-t-C.f.f.f.f.*....",
".....*.f.f.f.f.f.f.f.8.+.f.f.f.f,f,i,x.f.f.f.f.f,0,0.f.f.f,:,%.$,,,-.f.f.f.f.+.8.f.f.f.f.f.f.f.*....",
".....*.f.f.f.f.f.f.f.8.+.f.f.f.f,f,j,y.f.f.f.f.f,0,0.f.f,@,=.$,,,-.f.f.f.f.f.+.8.f.f.f.f.f.f.f.*....",
".....*.f.f.f.f.f.f.f.8.+.f.f.f.f,f,k,z.f.f.f.f.f,0,0.f,8,#.$,,,-.f.f.f.f.f.f.+.8.f.f.f.f.f.f.f.*....",
".....*.f.f.f.f.f.f.f.8.+.f.f.f.f.B,l,A.f.f.f.f.f,0,0,5,9.$,,,-.f.f.f.f.f.f.f.+.8.f.f.f.f.f.f.f.*....",
".....*.f.f.f.f.f.f.f.8.+.f.f.f.f,g,m,B.f.f.f.f.f,0,3,6.$,,,-.f.f.f.f.f.f.f,-.(.8.f.f.f.f.f.f.f.*....",
".....*.f.f.f.f.f.f.f.8.+.f.f.f.f,f,n,C.f.f.f.f.f,0...$,,,-.f.f.f.f.f.f.f,-,,.$.8.f.f.f.f.f.f.f.*....",
".....*.f.f.f.f.f.f.f.8.+.f.f.f.f,f,o,D.f.f.f.f,W,1.$,*,-.f.f.f.f.f.f.f,-,,.$...8.f.f.f.f.f.f.f.*....",
".....*.f.f.f.f.f.f.f.8.+.f.f.f.f,f,p,E.f.f.f,S,X.$,,,-.f.f.f.f.f.f.f,-,*.$,M,+.8.f.f.f.f.f.f.f.*....",
".....*.f.f.f.f.f.f.f.8.+.f.f.f.f,g,q,F.f.f,O,T.$,,.f.f.f.f.f.f.f.f,-,,.$-e,O.+.8.f.f.f.f.f.f.f.*....",
".....*.f.f.f.f.f.f.f.8.+.f.f.f.f,-,r,G.f,J,P.$,,,-.f.f.f.f.f.f.f,-,,.$,U-d.f.+.8.f.f.f.f.f.f.f.*....",
".....*.f.f.f.f.f.f.f.8.+.f.f.f.f,g,s,H,J,K.$,,,-.f.f.f.f.f.f.f,-,,.$-c,N.f.f.+.8.f.f.f.f.f.f.f.*....",
".....*.f.f.f.f.f.f.f.8.+.f.f.f.f,-,t,I,K.$,,,-.f.f.f.f.f.f.f,-,,.$-*-d.f.f.f.+.8.f.f.f.f.f.f.f.*....",
".....*.f.f.f.f.f.f.f.8.+.f.f.f.f,-,u...$,d,-.f.f.f.f.f.f.f.f,d.$..-a.f.f.f.f.+.8.f.f.f.f.f.f.f.*....",
".....*.f.f.f.f.f.f.f.8.+.f.f.f.f,b,v.$,,.f.f.f.f.f.f.f.f,-,,.$....-b.f.f.f.f.+.8.f.f.f.f.f.f.f.*....",
".....*.f.f.f.f.f.f.f.8.+.f.f.f,b,h.$,,,-.f.f.f.f.f.f.f,-,d.$,$,(..-b.f.f.f.f.+.8.f.f.f.f.f.f.f.*....",
".....*.f.f.f.f.f.f.f.8.+.f.f,a,c.$,,,-.f.f.f.f.f.f.f,-,,.$,7,S,)---b.f.f.f.f.+.8.f.f.f.f.f.f.f.*....",
".....*.f.f.f.f.f.f.f.8.+.f.],..$,,,-.f.f.f.f.f.f.f,-,,.$,;,S.f,[---b.f.f.f.f.+.8.f.f.f.f.f.f.f.*....",
".....*.f.f.f.f.f.f.f.8.+.],..$,d,-.f.f.f.f.f.f.f.f,,.$,7,S.f.f,)---b.f.f.f.f.+.8.f.f.f.f.f.f.f.*....",
".....*.f.f.f.f.f.f.f.8.%,..$,,,-.f.f.f.f.f.f.f,-,,.$,7,S.f.f.f,[..-b.f.f.f.f.+.8.f.f.f.f.f.f.f.*....",
".....*.f.f.f.f.f.f.f.8...$,*,-.f.f.f.f.f.f.f,-,*.$,4,S.f.f.f.f,)..-b.f.f.f.f.+.8.f.f.f.f.f.f.f.*....",
".....*.f.f.f.f.f.f.f.8.$,,,-.f.f.f.f.f.f.f,-,,.$..,0.f.f.f.f.f,)---b.f.f.f.f.+.8.f.f.f.f.f.f.f.*....",
".....*.f.f.f.f.f.f.f.8.(,-.f.f.f.f.f.f.f,-,d.$,Y,2,0.f.f.f.f.f,]..-b.f.f.f.f.+.8.f.f.f.f.f.f.f.*....",
".....*.f.f.f.f.f.f.f.8.+.f.f.f.f.f.f.f,-,,.$,U,Z,0,0.f.f.f.f.f-.---b.f.f.f.f.+.8.f.f.f.f.f.f.f.*....",
".....*.f.f.f.f.f.f.f.8.+.f.f.f.f.f.f,-,,.$,Q,V.f,0,0.f.f.f.f.f,)---b.f.f.f.f.+.8.f.f.f.f.f.f.f.*....",
".....*.f.f.f.f.f.f.f.8.+.f.f.f.f.f,-,,.$,M,R.f.f,0,0.f.f.f.f.f,)---b.f.f.f.f.+.8.f.f.f.f.f.f.f.*....",
".....*.f.f.f.f.f.f.f.8.+.f.f.f.f,-,,.$,L,N.f.f.f,0,0.f.f.f.f.f,]---b.f.f.f.f.+.8.f.f.f.f.f.f.f.*....",
".....*.f.f.f.C.M.x.g.7.=.+.+.+.+.(.$...%.+.+.+.+,m,m.+.+.+.+.+-,..,e.+.+.+.+.=.7.g-u-D.f.f.f.f.*....",
".....*.f.f.f.D.N.X.4...7.8.8.8.8.8.8.8.8.8.8.8.8.8.8.8.8.8.8.8.8.8.8.8.8.8.8.7...4-v-E.f.f.f.f.*....",
".....*.f.f.f.f.e.Y...9.t.f.f.f.f.f.f.f.f.f.f.f.f.f.f.f.f.f.f.f.f.f.f.f.f.f.f.t.l...k.n.f.f.f.f.*....",
".....*.i.q.x.E.O...s.@.).f.f.f.f.f.f.f.f.f.f.f.f.f.f.f.f.f.f.f.f.f.f.f.f.f.f-h-m.s...O.E.f,-.f.*....",
".....*.j.r.y.F...s.t.#.[.f.f.f.f.f.f.f.f.f.f.f.f.f.f.f.f.f.f.f.f.f.f.f.f.f.f-i-n.t-w...F-J-N-P.*....",
".....*.f.n.z...l.t.f.S.B.f.f.f.f.f.f.f.f.f.f.f.f.f.f.f.f.f.f.f.f.f.f.f.f.f.f-j-o.f.t.l..-K-O.B.*....",
".....*.e.k...l.P.Z.f.f.f.f.f.f.f.f.f.f.f.f.f.f.f.f.f.f.f.f.f.f.f.f.f.f.f.f.f.f.f.f-x-F.s...k.e.*....",
".....a.k...l.t.Q.0.f.f.f.f.f.f.f.f.f.f.f.f.f.f.f.f.f.f.f.f.f.f.f.f.f.f.f.f.f.f.f.f-y-G.t.l...k.a....",
".....b...s.t.f.R.1.f.f.f.f.f.f.f.f.f.f.f.f.f.f.f.f.f.f.f.f.f.f.f.f.f.f.f.f.f.f.f.f.i.t.f.t.s...b....",
".......c.-.*.*.*.*.*.*.*.*.*.*.*.*.*.*.*.*.*.*.*.*.*.*.*.*.*.*.*.*.*.*.*.*.*.*.*.*.*.*.*.*.-.c......",
"....................................................................................................",
"...................................................................................................."
};
